<svg width="96" height="33" viewBox="0 0 96 33" fill="none" xmlns="http://www.w3.org/2000/svg">
<path d="M36.932 10.94C36.804 11.116 36.62 11.204 36.38 11.204C36.316 11.204 36.252 11.196 36.188 11.18C36.012 10.78 35.88 10.216 35.792 9.488C35.712 8.752 35.652 8.268 35.612 8.036C34.74 8.004 33.868 7.988 32.996 7.988C32.124 7.988 31.344 8.024 30.656 8.096C30.584 8.424 30.504 8.916 30.416 9.572C30.336 10.22 30.276 10.656 30.236 10.88C29.948 11.112 29.688 11.144 29.456 10.976C29.48 10.784 29.516 10.48 29.564 10.064C29.612 9.648 29.652 9.296 29.684 9.008C29.724 8.712 29.78 8.34 29.852 7.892C29.924 7.444 29.992 7.06 30.056 6.74C30.128 6.412 30.224 6.048 30.344 5.648C30.464 5.24 30.588 4.892 30.716 4.604C30.844 4.316 31 4.024 31.184 3.728C31.376 3.432 31.58 3.192 31.796 3.008C32.292 2.6 32.832 2.396 33.416 2.396C34 2.396 34.484 2.62 34.868 3.068C35.26 3.516 35.556 4.104 35.756 4.832C35.956 5.56 36.116 6.292 36.236 7.028C36.356 7.764 36.472 8.516 36.584 9.284C36.696 10.052 36.812 10.604 36.932 10.94ZM34.7 4.28C34.548 3.888 34.352 3.584 34.112 3.368C33.872 3.144 33.576 3.032 33.224 3.032C32.872 3.032 32.532 3.204 32.204 3.548C31.876 3.892 31.616 4.32 31.424 4.832C31.08 5.784 30.864 6.664 30.776 7.472C31.576 7.384 32.38 7.34 33.188 7.34C33.996 7.34 34.776 7.364 35.528 7.412C35.496 7.292 35.436 7.008 35.348 6.56C35.26 6.112 35.168 5.72 35.072 5.384C34.984 5.04 34.86 4.672 34.7 4.28ZM41.052 6.2C40.98 6.016 40.844 5.872 40.644 5.768C40.444 5.664 40.196 5.612 39.9 5.612C39.604 5.612 39.324 5.7 39.06 5.876C38.804 6.052 38.676 6.288 38.676 6.584C38.676 6.88 38.796 7.116 39.036 7.292C39.284 7.46 39.58 7.588 39.924 7.676C40.276 7.764 40.628 7.86 40.98 7.964C41.332 8.06 41.628 8.224 41.868 8.456C42.116 8.68 42.24 8.976 42.24 9.344C42.24 9.88 42.016 10.288 41.568 10.568C41.128 10.848 40.596 10.988 39.972 10.988C39.604 10.988 39.12 10.888 38.52 10.688C37.928 10.488 37.632 10.248 37.632 9.968C37.632 9.76 37.808 9.656 38.16 9.656C38.264 9.656 38.4 9.72 38.568 9.848C39.08 10.224 39.604 10.412 40.14 10.412C40.428 10.412 40.676 10.364 40.884 10.268C41.268 10.084 41.46 9.788 41.46 9.38C41.46 9.132 41.336 8.932 41.088 8.78C40.848 8.628 40.552 8.508 40.2 8.42C39.856 8.332 39.508 8.236 39.156 8.132C38.804 8.028 38.504 7.856 38.256 7.616C38.016 7.368 37.896 7.056 37.896 6.68C37.896 6.192 38.116 5.796 38.556 5.492C38.996 5.188 39.54 5.036 40.188 5.036C40.628 5.036 41.024 5.152 41.376 5.384C41.736 5.608 41.916 5.936 41.916 6.368C41.916 6.656 41.752 6.8 41.424 6.8C41.288 6.8 41.196 6.776 41.148 6.728C41.108 6.68 41.084 6.596 41.076 6.476C41.076 6.348 41.068 6.256 41.052 6.2ZM43.3386 8.516L43.4466 3.14C43.4466 2.724 43.4226 2.44 43.3746 2.288C43.5186 2.16 43.7386 2.096 44.0346 2.096C44.1546 2.952 44.2146 4.052 44.2146 5.396C44.2146 5.796 44.1786 6.724 44.1066 8.18C44.4826 6.156 45.1546 5.144 46.1226 5.144C46.4666 5.144 46.7306 5.328 46.9146 5.696C47.1066 6.056 47.2266 6.496 47.2746 7.016C47.3226 7.536 47.3626 8.056 47.3946 8.576C47.4746 9.824 47.6986 10.448 48.0666 10.448C48.0746 10.448 48.1506 10.424 48.2946 10.376C48.6146 10.28 48.7946 10.256 48.8346 10.304C48.8346 10.392 48.7106 10.504 48.4626 10.64C48.2146 10.768 47.9866 10.832 47.7786 10.832C47.4266 10.832 47.1546 10.652 46.9626 10.292C46.7786 9.924 46.6626 9.48 46.6146 8.96C46.5746 8.44 46.5426 7.924 46.5186 7.412C46.5026 6.892 46.4506 6.452 46.3626 6.092C46.2746 5.724 46.1266 5.54 45.9186 5.54C45.6626 5.54 45.4266 5.82 45.2106 6.38C45.0026 6.932 44.8386 7.544 44.7186 8.216C44.5986 8.888 44.4506 9.504 44.2746 10.064C44.1066 10.616 43.9346 10.892 43.7586 10.892C43.4786 10.892 43.3386 10.1 43.3386 8.516ZM49.978 2.168C49.97 2.352 49.966 2.556 49.966 2.78C49.966 3.004 49.978 3.236 50.002 3.476C49.89 3.604 49.738 3.668 49.546 3.668C49.306 3.668 49.186 3.476 49.186 3.092C49.186 3.076 49.186 3.016 49.186 2.912C49.186 2.808 49.186 2.716 49.186 2.636C49.194 2.548 49.21 2.448 49.234 2.336C49.29 2.144 49.414 2.048 49.606 2.048C49.798 2.048 49.922 2.088 49.978 2.168ZM49.21 8.048C49.21 6.48 49.29 5.576 49.45 5.336C49.506 5.248 49.574 5.204 49.654 5.204C49.734 5.204 49.866 5.248 50.05 5.336C50.01 6.016 49.99 6.756 49.99 7.556C49.99 7.556 49.998 8.44 50.014 10.208C50.014 10.456 49.958 10.632 49.846 10.736C49.742 10.832 49.642 10.88 49.546 10.88C49.458 10.88 49.366 10.856 49.27 10.808C49.23 9.768 49.21 8.848 49.21 8.048ZM54.5403 6.2C54.4683 6.016 54.3323 5.872 54.1323 5.768C53.9323 5.664 53.6843 5.612 53.3883 5.612C53.0923 5.612 52.8123 5.7 52.5483 5.876C52.2923 6.052 52.1643 6.288 52.1643 6.584C52.1643 6.88 52.2843 7.116 52.5243 7.292C52.7723 7.46 53.0683 7.588 53.4123 7.676C53.7643 7.764 54.1163 7.86 54.4683 7.964C54.8203 8.06 55.1163 8.224 55.3563 8.456C55.6043 8.68 55.7283 8.976 55.7283 9.344C55.7283 9.88 55.5043 10.288 55.0563 10.568C54.6163 10.848 54.0843 10.988 53.4603 10.988C53.0923 10.988 52.6083 10.888 52.0083 10.688C51.4163 10.488 51.1203 10.248 51.1203 9.968C51.1203 9.76 51.2963 9.656 51.6483 9.656C51.7523 9.656 51.8883 9.72 52.0563 9.848C52.5683 10.224 53.0923 10.412 53.6283 10.412C53.9163 10.412 54.1643 10.364 54.3723 10.268C54.7563 10.084 54.9483 9.788 54.9483 9.38C54.9483 9.132 54.8243 8.932 54.5763 8.78C54.3363 8.628 54.0403 8.508 53.6883 8.42C53.3443 8.332 52.9963 8.236 52.6443 8.132C52.2923 8.028 51.9923 7.856 51.7443 7.616C51.5043 7.368 51.3843 7.056 51.3843 6.68C51.3843 6.192 51.6043 5.796 52.0443 5.492C52.4843 5.188 53.0283 5.036 53.6763 5.036C54.1163 5.036 54.5123 5.152 54.8643 5.384C55.2243 5.608 55.4043 5.936 55.4043 6.368C55.4043 6.656 55.2403 6.8 54.9123 6.8C54.7763 6.8 54.6843 6.776 54.6363 6.728C54.5963 6.68 54.5723 6.596 54.5643 6.476C54.5643 6.348 54.5563 6.256 54.5403 6.2ZM56.8269 8.516L56.9349 3.14C56.9349 2.724 56.9109 2.44 56.8629 2.288C57.0069 2.16 57.2269 2.096 57.5229 2.096C57.6429 2.952 57.7029 4.052 57.7029 5.396C57.7029 5.796 57.6669 6.724 57.5949 8.18C57.9709 6.156 58.6429 5.144 59.6109 5.144C59.9549 5.144 60.2189 5.328 60.4029 5.696C60.5949 6.056 60.7149 6.496 60.7629 7.016C60.8109 7.536 60.8509 8.056 60.8829 8.576C60.9629 9.824 61.1869 10.448 61.5549 10.448C61.5629 10.448 61.6389 10.424 61.7829 10.376C62.1029 10.28 62.2829 10.256 62.3229 10.304C62.3229 10.392 62.1989 10.504 61.9509 10.64C61.7029 10.768 61.4749 10.832 61.2669 10.832C60.9149 10.832 60.6429 10.652 60.4509 10.292C60.2669 9.924 60.1509 9.48 60.1029 8.96C60.0629 8.44 60.0309 7.924 60.0069 7.412C59.9909 6.892 59.9389 6.452 59.8509 6.092C59.7629 5.724 59.6149 5.54 59.4069 5.54C59.1509 5.54 58.9149 5.82 58.6989 6.38C58.4909 6.932 58.3269 7.544 58.2069 8.216C58.0869 8.888 57.9389 9.504 57.7629 10.064C57.5949 10.616 57.4229 10.892 57.2469 10.892C56.9669 10.892 56.8269 10.1 56.8269 8.516ZM66.5093 2.528L66.5453 5.348C66.5453 5.748 66.5333 6.136 66.5093 6.512C67.2133 6.232 67.8373 5.9 68.3813 5.516C68.9333 5.124 69.3573 4.756 69.6533 4.412C69.9493 4.06 70.2053 3.732 70.4213 3.428C70.6453 3.116 70.8373 2.868 70.9973 2.684C71.1653 2.5 71.3213 2.408 71.4653 2.408C71.6093 2.408 71.7493 2.46 71.8853 2.564C71.5573 3.388 71.0933 4.1 70.4933 4.7C69.9013 5.292 69.1493 5.896 68.2373 6.512C68.6613 6.728 69.0613 7.036 69.4373 7.436C69.8213 7.828 70.1373 8.216 70.3853 8.6C71.0813 9.664 71.7333 10.424 72.3413 10.88C72.2053 11.088 72.0053 11.192 71.7413 11.192C71.4853 11.192 71.1733 10.988 70.8053 10.58C70.4373 10.164 70.0973 9.704 69.7853 9.2C69.4733 8.696 69.1173 8.208 68.7173 7.736C68.3173 7.256 67.9493 6.968 67.6133 6.872C67.5493 6.896 67.3853 6.972 67.1213 7.1C66.8653 7.22 66.6613 7.304 66.5093 7.352C66.5093 8.704 66.4893 9.84 66.4493 10.76C66.3053 10.904 66.0453 10.976 65.6693 10.976C65.6533 10.736 65.6453 10.188 65.6453 9.332L65.6933 2.768C65.7893 2.592 65.9693 2.504 66.2333 2.504C66.3213 2.504 66.4133 2.512 66.5093 2.528ZM73.6529 5.372C73.4449 5.764 73.3409 6.348 73.3409 7.124C73.3409 8.292 73.5609 9.224 74.0009 9.92C74.2569 10.328 74.5609 10.532 74.9129 10.532C75.2729 10.532 75.5609 10.344 75.7769 9.968C76.0329 9.504 76.1609 8.864 76.1609 8.048C76.1609 7.024 76.0169 6.268 75.7289 5.78C75.6009 5.548 75.5249 5.38 75.5009 5.276C75.4849 5.172 75.5129 5.096 75.5849 5.048C75.6569 5 75.7769 4.976 75.9449 4.976C76.4329 4.976 76.7529 5.48 76.9049 6.488C76.9529 6.768 76.9769 7.048 76.9769 7.328C76.9769 8.056 76.8329 8.784 76.5449 9.512C76.1369 10.512 75.4929 11.012 74.6129 11.012C74.1489 11.012 73.7529 10.84 73.4249 10.496C72.8089 9.84 72.5009 8.852 72.5009 7.532C72.5009 6.956 72.5409 6.516 72.6209 6.212C72.7009 5.908 72.7689 5.712 72.8249 5.624C72.8809 5.528 72.9489 5.44 73.0289 5.36C73.1089 5.28 73.1969 5.248 73.2929 5.264C73.3969 5.28 73.5169 5.316 73.6529 5.372ZM78.729 5.756C78.817 5.756 78.861 6.284 78.861 7.34C78.861 7.508 78.857 7.776 78.849 8.144C78.849 8.512 78.849 8.704 78.849 8.72C78.929 7.816 79.009 7.2 79.089 6.872C79.177 6.544 79.265 6.264 79.353 6.032C79.441 5.792 79.537 5.608 79.641 5.48C79.897 5.152 80.193 4.988 80.529 4.988C80.953 4.988 81.269 5.2 81.477 5.624C81.693 6.048 81.805 6.612 81.813 7.316C82.013 5.868 82.541 5.144 83.397 5.144C83.765 5.144 84.025 5.332 84.177 5.708C84.329 6.084 84.405 6.532 84.405 7.052L84.369 8.876C84.369 10.076 84.629 10.676 85.149 10.676L85.833 10.568C85.873 10.568 85.913 10.572 85.953 10.58C85.873 10.7 85.725 10.796 85.509 10.868C85.293 10.932 85.081 10.964 84.873 10.964C84.465 10.964 84.157 10.784 83.949 10.424C83.749 10.056 83.641 9.672 83.625 9.272C83.609 8.864 83.601 8.516 83.601 8.228L83.625 7.16C83.625 6.808 83.601 6.472 83.553 6.152C83.513 5.832 83.401 5.672 83.217 5.672C82.945 5.672 82.681 6.244 82.425 7.388C82.177 8.524 82.025 9.604 81.969 10.628C81.833 10.772 81.661 10.848 81.453 10.856C81.389 10.856 81.329 10.844 81.273 10.82C81.201 10.404 81.161 9.712 81.153 8.744C81.153 7.768 81.105 6.992 81.009 6.416C80.913 5.84 80.697 5.552 80.361 5.552C80.137 5.552 79.953 5.8 79.809 6.296C79.577 7.072 79.369 8.28 79.185 9.92C79.137 10.304 79.101 10.58 79.077 10.748C78.909 10.892 78.737 10.964 78.561 10.964L78.381 10.94C78.269 9.604 78.213 7.948 78.213 5.972C78.301 5.828 78.473 5.756 78.729 5.756ZM89.9727 7.544L89.9127 8.924C89.9127 9.62 89.9927 10.088 90.1527 10.328C90.2487 10.488 90.3807 10.568 90.5487 10.568C90.5967 10.568 90.6647 10.556 90.7527 10.532C90.9207 10.484 91.0607 10.508 91.1727 10.604C91.1167 10.884 90.8367 11.024 90.3327 11.024C89.9887 11.024 89.7607 10.88 89.6487 10.592C89.5607 10.376 89.4967 10.108 89.4567 9.788C89.4167 9.46 89.3847 9.236 89.3607 9.116C88.8407 10.108 88.3367 10.712 87.8487 10.928C87.6007 11.04 87.3127 11.096 86.9847 11.096C86.6567 11.096 86.4007 10.94 86.2167 10.628C86.0407 10.308 85.9527 9.844 85.9527 9.236C85.9527 8.628 86.0527 7.992 86.2527 7.328C86.4527 6.656 86.7447 6.092 87.1287 5.636C87.5127 5.172 87.9327 4.94 88.3887 4.94C89.0447 4.94 89.4807 5.212 89.6967 5.756C89.8807 6.22 89.9727 6.816 89.9727 7.544ZM87.0327 7.16C86.9207 7.592 86.8367 8.004 86.7807 8.396C86.7247 8.78 86.6967 9.124 86.6967 9.428C86.6967 9.724 86.7567 9.98 86.8767 10.196C87.0047 10.412 87.1687 10.52 87.3687 10.52C87.8007 10.52 88.2167 10.112 88.6167 9.296C89.0167 8.48 89.2167 7.72 89.2167 7.016C89.2167 6.56 89.0967 6.184 88.8567 5.888C88.6967 5.696 88.4847 5.6 88.2207 5.6C87.9647 5.6 87.7287 5.752 87.5127 6.056C87.3047 6.352 87.1447 6.72 87.0327 7.16ZM92.7473 9.824L92.7833 10.508C92.7833 10.684 92.7313 10.808 92.6273 10.88C92.5313 10.944 92.4313 10.976 92.3273 10.976C92.2313 10.976 92.1313 10.96 92.0273 10.928C91.8513 10 91.7153 8.844 91.6193 7.46C91.5313 6.076 91.4793 5.292 91.4633 5.108C91.5833 4.996 91.7073 4.94 91.8353 4.94C91.9713 4.94 92.0913 4.956 92.1953 4.988C92.2273 5.22 92.2513 5.732 92.2673 6.524C92.2833 7.316 92.3033 7.812 92.3273 8.012C92.4393 7.34 92.6393 6.712 92.9273 6.128C93.0873 5.8 93.2953 5.54 93.5513 5.348C93.8153 5.148 94.0953 5.048 94.3913 5.048C94.6953 5.048 94.9713 5.184 95.2193 5.456C95.4753 5.72 95.6033 5.96 95.6033 6.176C95.6033 6.256 95.5553 6.32 95.4593 6.368C95.3633 6.408 95.2553 6.428 95.1353 6.428C95.0233 6.428 94.9353 6.384 94.8713 6.296C94.8073 6.208 94.7633 6.112 94.7393 6.008C94.7153 5.896 94.6633 5.796 94.5833 5.708C94.5033 5.62 94.3953 5.576 94.2593 5.576C93.8993 5.576 93.5913 5.9 93.3353 6.548C92.9433 7.516 92.7473 8.608 92.7473 9.824Z" fill="#3D3D3D"/>
<path d="M1.50412 26.5654C1.54028 26.8392 1.79152 27.0318 2.06528 26.9957L6.52655 26.4065C6.80031 26.3703 6.99293 26.1191 6.95678 25.8453C6.92063 25.5716 6.66939 25.379 6.39562 25.4151L2.43005 25.9388L1.90635 21.9732C1.8702 21.6995 1.61896 21.5068 1.34519 21.543C1.07143 21.5792 0.878805 21.8304 0.914959 22.1042L1.50412 26.5654ZM27.5514 11.7763C25.3194 16.2409 23.348 18.3483 21.5244 19.3074C19.7136 20.2598 17.9643 20.1284 16.0002 19.879C14.059 19.6325 11.9015 19.2667 9.50964 19.9571C7.10164 20.6522 4.51944 22.3918 1.60302 26.1957L2.39662 26.8042C5.2303 23.1082 7.64813 21.5353 9.78698 20.9179C11.942 20.2959 13.8781 20.6176 15.8742 20.871C17.8475 21.1216 19.8791 21.3026 21.9899 20.1925C24.0878 19.0891 26.1784 16.7589 28.4459 12.2235L27.5514 11.7763Z" fill="#3D3D3D"/>
</svg>
